ffmpeg version git-2026-04-19-de18feb Copyright (c) 2000-2026 the FFmpeg developers
  built with gcc 9 (Ubuntu 9.4.0-1ubuntu1~20.04.2)
  configuration: --enable-shared --enable-gpl --enable-libx264
  libavutil      60. 30.100 / 60. 30.100
  libavcodec     62. 30.100 / 62. 30.100
  libavformat    62. 13.102 / 62. 13.102
  libavdevice    62.  4.100 / 62.  4.100
  libavfilter    11. 15.101 / 11. 15.101
  libswscale      9.  7.100 /  9.  7.100
  libswresample   6.  4.100 /  6.  4.100
[in#0/x11grab @ 0x56303ecffc40] Stream #0: not enough frames to estimate rate; consider increasing probesize
Input #0, x11grab, from ':0.0+0,0':
  Duration: N/A, start: 1777446330.537005, bitrate: 3678192 kb/s
  Stream #0:0: Video: rawvideo (BGR[0] / 0x524742), bgr0, 2870x1602, 3678192 kb/s, 25 fps, 1000k tbr, 1000k tbn, start 1777446330.537005
Stream mapping:
  Stream #0:0 -> #0:0 (rawvideo (native) -> h264 (libx264))
[libx264 @ 0x56303ed0df00] using cpu capabilities: MMX2 SSE2Fast SSSE3 SSE4.2 AVX FMA3 BMI2 AVX2
[libx264 @ 0x56303ed0df00] profile High, level 5.0
[libx264 @ 0x56303ed0df00] 264 - core 155 r2917 0a84d98 - H.264/MPEG-4 AVC codec - Copyleft 2003-2018 - http://www.videolan.org/x264.html - options: cabac=1 ref=1 deblock=1:0:0 analyse=0x3:0x113 me=hex subme=2 psy=1 psy_rd=1.00:0.00 mixed_ref=0 me_range=16 chroma_me=1 trellis=0 8x8dct=1 cqm=0 deadzone=21,11 fast_pskip=1 chroma_qp_offset=0 threads=6 lookahead_threads=2 sliced_threads=0 nr=0 decimate=1 interlaced=0 bluray_compat=0 constrained_intra=0 bframes=3 b_pyramid=2 b_adapt=1 b_bias=0 direct=1 weightb=1 open_gop=0 weightp=1 keyint=250 keyint_min=25 scenecut=40 intra_refresh=0 rc_lookahead=10 rc=crf mbtree=1 crf=23.0 qcomp=0.60 qpmin=0 qpmax=69 qpstep=4 ip_ratio=1.40 aq=1:1.00
Output #0, matroska, to '/home/lmy/catkin_ws/recordings_tmp/exp_turncmp5_point_v2/screen.mkv':
  Metadata:
    encoder         : Lavf62.13.102
  Stream #0:0: Video: h264 (H264 / 0x34363248), yuv420p(tv, progressive), 2870x1602, q=2-31, 25 fps, 1k tbn
    Metadata:
      encoder         : Lavc62.30.100 libx264
    Side data:
      CPB properties: bitrate max/min/avg: 0/0/0 buffer size: 0 vbv_delay: N/A
frame=    0 fps=0.0 q=0.0 size=       0KiB time=N/A bitrate=N/A speed=N/A elapsed=0:00:00.50    frame=    6 fps=6.0 q=28.0 size=       1KiB time=00:00:00.16 bitrate=  29.7kbits/s speed=0.16x elapsed=0:00:01.00    frame=   18 fps= 12 q=28.0 size=       1KiB time=00:00:00.64 bitrate=   7.4kbits/s speed=0.426x elapsed=0:00:01.50    frame=   31 fps= 15 q=28.0 size=       1KiB time=00:00:01.16 bitrate=   4.1kbits/s speed=0.58x elapsed=0:00:02.00    frame=   43 fps= 17 q=28.0 size=       1KiB time=00:00:01.64 bitrate=   2.9kbits/s speed=0.655x elapsed=0:00:02.50    frame=   56 fps= 19 q=28.0 size=       1KiB time=00:00:02.16 bitrate=   2.2kbits/s speed=0.719x elapsed=0:00:03.00    frame=   68 fps= 19 q=28.0 size=       1KiB time=00:00:02.64 bitrate=   1.8kbits/s speed=0.754x elapsed=0:00:03.50    frame=   81 fps= 20 q=28.0 size=       1KiB time=00:00:03.16 bitrate=   1.5kbits/s speed=0.789x elapsed=0:00:04.00    frame=   93 fps= 21 q=28.0 size=       1KiB time=00:00:03.64 bitrate=   1.3kbits/s speed=0.808x elapsed=0:00:04.50    frame=  106 fps= 21 q=28.0 size=       1KiB time=00:00:04.16 bitrate=   1.1kbits/s speed=0.831x elapsed=0:00:05.00    frame=  118 fps= 21 q=28.0 size=       1KiB time=00:00:04.64 bitrate=   1.0kbits/s speed=0.843x elapsed=0:00:05.50    frame=  131 fps= 22 q=28.0 size=     154KiB time=00:00:05.16 bitrate= 244.3kbits/s speed=0.859x elapsed=0:00:06.00    frame=  143 fps= 22 q=28.0 size=     154KiB time=00:00:05.64 bitrate= 223.5kbits/s speed=0.867x elapsed=0:00:06.50    frame=  156 fps= 22 q=28.0 size=     154KiB time=00:00:06.16 bitrate= 204.7kbits/s speed=0.879x elapsed=0:00:07.00    frame=  169 fps= 23 q=28.0 size=     154KiB time=00:00:06.68 bitrate= 188.7kbits/s speed=0.89x elapsed=0:00:07.50    frame=  181 fps= 23 q=28.0 size=     154KiB time=00:00:07.16 bitrate= 176.1kbits/s speed=0.894x elapsed=0:00:08.00    frame=  194 fps= 23 q=28.0 size=     154KiB time=00:00:07.68 bitrate= 164.2kbits/s speed=0.903x elapsed=0:00:08.50    frame=  206 fps= 23 q=28.0 size=     154KiB time=00:00:08.16 bitrate= 154.5kbits/s speed=0.906x elapsed=0:00:09.00    frame=  219 fps= 23 q=28.0 size=     154KiB time=00:00:08.68 bitrate= 145.2kbits/s speed=0.913x elapsed=0:00:09.50    frame=  231 fps= 23 q=28.0 size=     154KiB time=00:00:09.16 bitrate= 137.6kbits/s speed=0.915x elapsed=0:00:10.01    frame=  244 fps= 23 q=28.0 size=     154KiB time=00:00:09.68 bitrate= 130.2kbits/s speed=0.921x elapsed=0:00:10.51    frame=  256 fps= 23 q=28.0 size=     256KiB time=00:00:10.16 bitrate= 206.4kbits/s speed=0.923x elapsed=0:00:11.01    frame=  269 fps= 23 q=28.0 size=     256KiB time=00:00:10.68 bitrate= 196.4kbits/s speed=0.928x elapsed=0:00:11.51    frame=  281 fps= 23 q=28.0 size=     256KiB time=00:00:11.16 bitrate= 187.9kbits/s speed=0.929x elapsed=0:00:12.01    frame=  293 fps= 23 q=28.0 size=     256KiB time=00:00:11.64 bitrate= 180.2kbits/s speed=0.93x elapsed=0:00:12.51    frame=  306 fps= 24 q=28.0 size=     256KiB time=00:00:12.16 bitrate= 172.5kbits/s speed=0.934x elapsed=0:00:13.01    frame=  319 fps= 24 q=28.0 size=     256KiB time=00:00:12.68 bitrate= 165.4kbits/s speed=0.938x elapsed=0:00:13.51    frame=  331 fps= 24 q=28.0 size=     256KiB time=00:00:13.16 bitrate= 159.4kbits/s speed=0.939x elapsed=0:00:14.01    frame=  344 fps= 24 q=28.0 size=     256KiB time=00:00:13.68 bitrate= 153.3kbits/s speed=0.942x elapsed=0:00:14.51    frame=  356 fps= 24 q=28.0 size=     256KiB time=00:00:14.16 bitrate= 148.1kbits/s speed=0.943x elapsed=0:00:15.01    frame=  369 fps= 24 q=28.0 size=     256KiB time=00:00:14.68 bitrate= 142.9kbits/s speed=0.946x elapsed=0:00:15.51    frame=  381 fps= 24 q=28.0 size=     512KiB time=00:00:15.16 bitrate= 276.7kbits/s speed=0.947x elapsed=0:00:16.01    frame=  393 fps= 24 q=28.0 size=     512KiB time=00:00:15.64 bitrate= 268.2kbits/s speed=0.947x elapsed=0:00:16.51    frame=  406 fps= 24 q=28.0 size=     512KiB time=00:00:16.16 bitrate= 259.5kbits/s speed=0.95x elapsed=0:00:17.01    frame=  419 fps= 24 q=28.0 size=     512KiB time=00:00:16.68 bitrate= 251.5kbits/s speed=0.952x elapsed=0:00:17.51    frame=  431 fps= 24 q=28.0 size=     512KiB time=00:00:17.16 bitrate= 244.4kbits/s speed=0.952x elapsed=0:00:18.01    frame=  444 fps= 24 q=28.0 size=     512KiB time=00:00:17.68 bitrate= 237.2kbits/s speed=0.955x elapsed=0:00:18.51    frame=  456 fps= 24 q=28.0 size=     512KiB time=00:00:18.16 bitrate= 231.0kbits/s speed=0.955x elapsed=0:00:19.02    frame=  469 fps= 24 q=28.0 size=     512KiB time=00:00:18.68 bitrate= 224.5kbits/s speed=0.957x elapsed=0:00:19.52    frame=  482 fps= 24 q=28.0 size=     512KiB time=00:00:19.20 bitrate= 218.5kbits/s speed=0.959x elapsed=0:00:20.02    frame=  494 fps= 24 q=28.0 size=     512KiB time=00:00:19.68 bitrate= 213.1kbits/s speed=0.959x elapsed=0:00:20.52    frame=  506 fps= 24 q=28.0 size=     512KiB time=00:00:20.16 bitrate= 208.1kbits/s speed=0.959x elapsed=0:00:21.02    frame=  519 fps= 24 q=28.0 size=     512KiB time=00:00:20.68 bitrate= 202.8kbits/s speed=0.961x elapsed=0:00:21.53    frame=  532 fps= 24 q=28.0 size=     512KiB time=00:00:21.20 bitrate= 197.8kbits/s speed=0.962x elapsed=0:00:22.03    frame=  544 fps= 24 q=28.0 size=     512KiB time=00:00:21.68 bitrate= 193.5kbits/s speed=0.962x elapsed=0:00:22.53    frame=  556 fps= 24 q=28.0 size=     512KiB time=00:00:22.20 bitrate= 188.9kbits/s speed=0.964x elapsed=0:00:23.03    frame=  569 fps= 24 q=28.0 size=     512KiB time=00:00:22.68 bitrate= 184.9kbits/s speed=0.964x elapsed=0:00:23.53    frame=  582 fps= 24 q=28.0 size=     512KiB time=00:00:23.20 bitrate= 180.8kbits/s speed=0.965x elapsed=0:00:24.03    frame=  594 fps= 24 q=28.0 size=     512KiB time=00:00:23.68 bitrate= 177.1kbits/s speed=0.965x elapsed=0:00:24.53    frame=  607 fps= 24 q=28.0 size=     512KiB time=00:00:24.20 bitrate= 173.3kbits/s speed=0.967x elapsed=0:00:25.03    frame=  619 fps= 24 q=28.0 size=     512KiB time=00:00:24.68 bitrate= 169.9kbits/s speed=0.967x elapsed=0:00:25.53    frame=  632 fps= 24 q=28.0 size=     768KiB time=00:00:25.20 bitrate= 249.7kbits/s speed=0.968x elapsed=0:00:26.03    frame=  644 fps= 24 q=28.0 size=     768KiB time=00:00:25.68 bitrate= 245.0kbits/s speed=0.968x elapsed=0:00:26.53    frame=  656 fps= 24 q=28.0 size=     768KiB time=00:00:26.16 bitrate= 240.5kbits/s speed=0.968x elapsed=0:00:27.03    frame=  669 fps= 24 q=28.0 size=     768KiB time=00:00:26.68 bitrate= 235.8kbits/s speed=0.969x elapsed=0:00:27.53    frame=  682 fps= 24 q=28.0 size=     768KiB time=00:00:27.20 bitrate= 231.3kbits/s speed=0.97x elapsed=0:00:28.03    frame=  694 fps= 24 q=28.0 size=     768KiB time=00:00:27.68 bitrate= 227.3kbits/s speed=0.97x elapsed=0:00:28.54    frame=  707 fps= 24 q=28.0 size=     768KiB time=00:00:28.20 bitrate= 223.1kbits/s speed=0.971x elapsed=0:00:29.04    frame=  719 fps= 24 q=28.0 size=     768KiB time=00:00:28.68 bitrate= 219.4kbits/s speed=0.971x elapsed=0:00:29.54    frame=  732 fps= 24 q=28.0 size=     768KiB time=00:00:29.20 bitrate= 215.5kbits/s speed=0.972x elapsed=0:00:30.04    frame=  744 fps= 24 q=28.0 size=     768KiB time=00:00:29.68 bitrate= 212.0kbits/s speed=0.972x elapsed=0:00:30.54    frame=  757 fps= 24 q=28.0 size=    1024KiB time=00:00:30.20 bitrate= 277.8kbits/s speed=0.973x elapsed=0:00:31.04    frame=  769 fps= 24 q=28.0 size=    1024KiB time=00:00:30.68 bitrate= 273.4kbits/s speed=0.973x elapsed=0:00:31.54    frame=  782 fps= 24 q=28.0 size=    1024KiB time=00:00:31.20 bitrate= 268.9kbits/s speed=0.974x elapsed=0:00:32.04    frame=  794 fps= 24 q=28.0 size=    1024KiB time=00:00:31.68 bitrate= 264.8kbits/s speed=0.973x elapsed=0:00:32.54    frame=  804 fps= 24 q=28.0 size=    1024KiB time=00:00:32.08 bitrate= 261.5kbits/s speed=0.971x elapsed=0:00:33.04    frame=  819 fps= 24 q=28.0 size=    1024KiB time=00:00:32.68 bitrate= 256.7kbits/s speed=0.974x elapsed=0:00:33.54    frame=  832 fps= 24 q=28.0 size=    1024KiB time=00:00:33.20 bitrate= 252.7kbits/s speed=0.975x elapsed=0:00:34.04    frame=  844 fps= 24 q=28.0 size=    1024KiB time=00:00:33.68 bitrate= 249.1kbits/s speed=0.975x elapsed=0:00:34.54    frame=  857 fps= 24 q=28.0 size=    1024KiB time=00:00:34.20 bitrate= 245.3kbits/s speed=0.976x elapsed=0:00:35.04    frame=  869 fps= 24 q=28.0 size=    1024KiB time=00:00:34.68 bitrate= 241.9kbits/s speed=0.976x elapsed=0:00:35.54    frame=  882 fps= 24 q=28.0 size=    1024KiB time=00:00:35.20 bitrate= 238.3kbits/s speed=0.976x elapsed=0:00:36.04    frame=  895 fps= 24 q=28.0 size=    1024KiB time=00:00:35.72 bitrate= 234.8kbits/s speed=0.977x elapsed=0:00:36.55    frame=  907 fps= 24 q=28.0 size=    1024KiB time=00:00:36.20 bitrate= 231.7kbits/s speed=0.977x elapsed=0:00:37.05    frame=  920 fps= 24 q=28.0 size=    1024KiB time=00:00:36.72 bitrate= 228.4kbits/s speed=0.978x elapsed=0:00:37.55    frame=  932 fps= 24 q=28.0 size=    1024KiB time=00:00:37.20 bitrate= 225.5kbits/s speed=0.978x elapsed=0:00:38.05    frame=  944 fps= 24 q=28.0 size=    1024KiB time=00:00:37.68 bitrate= 222.6kbits/s speed=0.977x elapsed=0:00:38.55    frame=  957 fps= 25 q=28.0 size=    1024KiB time=00:00:38.20 bitrate= 219.6kbits/s speed=0.978x elapsed=0:00:39.05    frame=  970 fps= 25 q=28.0 size=    1024KiB time=00:00:38.72 bitrate= 216.6kbits/s speed=0.979x elapsed=0:00:39.55    frame=  982 fps= 25 q=28.0 size=    1024KiB time=00:00:39.20 bitrate= 214.0kbits/s speed=0.979x elapsed=0:00:40.05    frame=  995 fps= 25 q=28.0 size=    1024KiB time=00:00:39.72 bitrate= 211.2kbits/s speed=0.979x elapsed=0:00:40.55    frame= 1007 fps= 25 q=28.0 size=    1280KiB time=00:00:40.20 bitrate= 260.8kbits/s speed=0.979x elapsed=0:00:41.05    frame= 1020 fps= 25 q=28.0 size=    1280KiB time=00:00:40.72 bitrate= 257.5kbits/s speed=0.98x elapsed=0:00:41.56    frame= 1032 fps= 25 q=28.0 size=    1280KiB time=00:00:41.20 bitrate= 254.5kbits/s speed=0.98x elapsed=0:00:42.06    frame= 1045 fps= 25 q=28.0 size=    1280KiB time=00:00:41.72 bitrate= 251.3kbits/s speed=0.98x elapsed=0:00:42.56    [out#0/matroska @ 0x56303ed0c500] video:1559KiB audio:0KiB subtitle:0KiB other streams:0KiB global headers:0KiB muxing overhead: 0.526155%
frame= 1078 fps= 25 q=-1.0 Lsize=    1568KiB time=00:00:43.04 bitrate= 298.4kbits/s speed=0.995x elapsed=0:00:43.24    
[libx264 @ 0x56303ed0df00] frame I:5     Avg QP:11.54  size:106922
[libx264 @ 0x56303ed0df00] frame P:272   Avg QP:16.63  size:  2068
[libx264 @ 0x56303ed0df00] frame B:801   Avg QP:23.45  size:   623
[libx264 @ 0x56303ed0df00] consecutive B-frames:  0.7%  0.4%  0.6% 98.3%
[libx264 @ 0x56303ed0df00] mb I  I16..4: 89.7%  2.3%  8.0%
[libx264 @ 0x56303ed0df00] mb P  I16..4:  0.3%  0.1%  0.0%  P16..4:  0.3%  0.2%  0.1%  0.0%  0.0%    skip:98.9%
[libx264 @ 0x56303ed0df00] mb B  I16..4:  0.0%  0.0%  0.0%  B16..8:  0.3%  0.2%  0.0%  direct: 0.1%  skip:99.5%  L0:44.7% L1:46.8% BI: 8.5%
[libx264 @ 0x56303ed0df00] 8x8 transform intra:4.8% inter:1.5%
[libx264 @ 0x56303ed0df00] coded y,uvDC,uvAC intra: 12.5% 19.6% 15.2% inter: 0.1% 0.1% 0.0%
[libx264 @ 0x56303ed0df00] i16 v,h,dc,p: 73% 24%  2%  0%
[libx264 @ 0x56303ed0df00] i8 v,h,dc,ddl,ddr,vr,hd,vl,hu: 11% 16% 65%  1%  3%  3%  1%  0%  1%
[libx264 @ 0x56303ed0df00] i4 v,h,dc,ddl,ddr,vr,hd,vl,hu: 27% 25% 26%  3%  2%  4%  3%  7%  2%
[libx264 @ 0x56303ed0df00] i8c dc,h,v,p: 64% 26%  9%  1%
[libx264 @ 0x56303ed0df00] Weighted P-Frames: Y:0.0% UV:0.0%
[libx264 @ 0x56303ed0df00] kb/s:296.14
Exiting normally, received signal 2.
